<?xml version="1.0" encoding="UTF-8" standalone="no"?>
<!-- Created with Inkscape (http://www.inkscape.org/) -->

<svg
   xmlns:dc="http://purl.org/dc/elements/1.1/"
   xmlns:cc="http://creativecommons.org/ns#"
   xmlns:rdf="http://www.w3.org/1999/02/22-rdf-syntax-ns#"
   xmlns:svg="http://www.w3.org/2000/svg"
   xmlns="http://www.w3.org/2000/svg"
   xmlns:xlink="http://www.w3.org/1999/xlink"
   xmlns:sodipodi="http://sodipodi.sourceforge.net/DTD/sodipodi-0.dtd"
   xmlns:inkscape="http://www.inkscape.org/namespaces/inkscape"
   width="64px"
   height="64px"
   id="wb_camera"
   sodipodi:version="0.32"
   inkscape:version="0.48.3.1 r9886"
   sodipodi:docname="wb_camera.svg"
   inkscape:output_extension="org.inkscape.output.svg.inkscape"
   version="1.1">
  <defs
     id="defs3003">
    <marker
       inkscape:stockid="Arrow1Lstart"
       orient="auto"
       refY="0.0"
       refX="0.0"
       id="Arrow1Lstart"
       style="overflow:visible">
      <path
         id="path3775"
         d="M 0.0,0.0 L 5.0,-5.0 L -12.5,0.0 L 5.0,5.0 L 0.0,0.0 z "
         style="fill-rule:evenodd;stroke:#000000;stroke-width:1.0pt;marker-start:none"
         transform="scale(0.8) translate(12.5,0)" />
    </marker>
    <marker
       inkscape:stockid="Arrow2Mend"
       orient="auto"
       refY="0.0"
       refX="0.0"
       id="Arrow2Mend"
       style="overflow:visible;">
      <path
         id="path3802"
         style="font-size:12.0;fill-rule:evenodd;stroke-width:0.62500000;stroke-linejoin:round;"
         d="M 8.7185878,4.0337352 L -2.2072895,0.016013256 L 8.7185884,-4.0017078 C 6.9730900,-1.6296469 6.9831476,1.6157441 8.7185878,4.0337352 z "
         transform="scale(0.6) rotate(180) translate(0,0)" />
    </marker>
    <marker
       inkscape:stockid="Arrow2Send"
       orient="auto"
       refY="0.0"
       refX="0.0"
       id="Arrow2Send"
       style="overflow:visible;">
      <path
         id="path3808"
         style="font-size:12.0;fill-rule:evenodd;stroke-width:0.62500000;stroke-linejoin:round;"
         d="M 8.7185878,4.0337352 L -2.2072895,0.016013256 L 8.7185884,-4.0017078 C 6.9730900,-1.6296469 6.9831476,1.6157441 8.7185878,4.0337352 z "
         transform="scale(0.3) rotate(180) translate(-2.3,0)" />
    </marker>
    <marker
       inkscape:stockid="Arrow2Lend"
       orient="auto"
       refY="0.0"
       refX="0.0"
       id="Arrow2Lend"
       style="overflow:visible;">
      <path
         id="path3796"
         style="font-size:12.0;fill-rule:evenodd;stroke-width:0.62500000;stroke-linejoin:round;"
         d="M 8.7185878,4.0337352 L -2.2072895,0.016013256 L 8.7185884,-4.0017078 C 6.9730900,-1.6296469 6.9831476,1.6157441 8.7185878,4.0337352 z "
         transform="scale(1.1) rotate(180) translate(1,0)" />
    </marker>
    <marker
       inkscape:stockid="CurveOut"
       orient="auto"
       refY="0.0"
       refX="0.0"
       id="CurveOut"
       style="overflow:visible">
      <path
         id="path3963"
         d="M -5.4129913,-5.0456926 C -2.6529913,-5.0456926 -0.41299131,-2.8056926 -0.41299131,-0.045692580 C -0.41299131,2.7143074 -2.6529913,4.9543074 -5.4129913,4.9543074"
         style="fill:none;fill-rule:evenodd;stroke:#000000;stroke-width:1.0pt;marker-start:none;marker-end:none"
         transform="scale(0.6)" />
    </marker>
    <marker
       inkscape:stockid="Arrow1Mend"
       orient="auto"
       refY="0.0"
       refX="0.0"
       id="Arrow1Mend"
       style="overflow:visible;">
      <path
         id="path3784"
         d="M 0.0,0.0 L 5.0,-5.0 L -12.5,0.0 L 5.0,5.0 L 0.0,0.0 z "
         style="fill-rule:evenodd;stroke:#000000;stroke-width:1.0pt;marker-start:none;"
         transform="scale(0.4) rotate(180) translate(10,0)" />
    </marker>
    <marker
       inkscape:stockid="Arrow1Lend"
       orient="auto"
       refY="0.0"
       refX="0.0"
       id="Arrow1Lend"
       style="overflow:visible;">
      <path
         id="path3778"
         d="M 0.0,0.0 L 5.0,-5.0 L -12.5,0.0 L 5.0,5.0 L 0.0,0.0 z "
         style="fill-rule:evenodd;stroke:#000000;stroke-width:1.0pt;marker-start:none;"
         transform="scale(0.8) rotate(180) translate(12.5,0)" />
    </marker>
    <linearGradient
       id="linearGradient4941">
      <stop
         style="stop-color:#000000;stop-opacity:1;"
         offset="0"
         id="stop4943" />
      <stop
         id="stop4945"
         offset="0.44600233"
         style="stop-color:#000000;stop-opacity:0.49803922;" />
      <stop
         style="stop-color:#000000;stop-opacity:0.24705882;"
         offset="0.69599217"
         id="stop4947" />
      <stop
         style="stop-color:#000000;stop-opacity:0;"
         offset="1"
         id="stop4949" />
    </linearGradient>
    <linearGradient
       id="linearGradient3364">
      <stop
         id="stop3366"
         offset="0"
         style="stop-color:#000000;stop-opacity:1;" />
      <stop
         style="stop-color:#000000;stop-opacity:0.49803922;"
         offset="0.5"
         id="stop4915" />
      <stop
         id="stop4917"
         offset="0.75"
         style="stop-color:#000000;stop-opacity:0.24705882;" />
      <stop
         id="stop3368"
         offset="1"
         style="stop-color:#000000;stop-opacity:0;" />
    </linearGradient>
    <linearGradient
       inkscape:collect="always"
       id="linearGradient3348">
      <stop
         style="stop-color:#000000;stop-opacity:1;"
         offset="0"
         id="stop3350" />
      <stop
         style="stop-color:#000000;stop-opacity:0;"
         offset="1"
         id="stop3352" />
    </linearGradient>
    <inkscape:perspective
       sodipodi:type="inkscape:persp3d"
       inkscape:vp_x="0 : 32 : 1"
       inkscape:vp_y="0 : 1000 : 0"
       inkscape:vp_z="64 : 32 : 1"
       inkscape:persp3d-origin="32 : 21.333333 : 1"
       id="perspective2391" />
    <radialGradient
       inkscape:collect="always"
       xlink:href="#linearGradient3348"
       id="radialGradient4937"
       gradientUnits="userSpaceOnUse"
       gradientTransform="matrix(-1.9133175e-4,0.2140867,-0.2399258,-2.3611465e-4,67.402024,44.507654)"
       cx="38.444538"
       cy="63.421787"
       fx="38.444336"
       fy="63.421776"
       r="12.92077" />
    <radialGradient
       inkscape:collect="always"
       xlink:href="#linearGradient4941"
       id="radialGradient4939"
       cx="54.778557"
       cy="58.819149"
       fx="54.77853"
       fy="58.819149"
       r="1.7856575"
       gradientTransform="matrix(-1.3867106e-3,1.5491014,-1.7360705,-1.7096801e-3,154.3683,-32.033834)"
       gradientUnits="userSpaceOnUse" />
    <radialGradient
       inkscape:collect="always"
       xlink:href="#linearGradient4941"
       id="radialGradient5001"
       gradientUnits="userSpaceOnUse"
       gradientTransform="matrix(-1.2738956e-3,1.5028427,-1.5948335,-1.6586262e-3,125.3842,-21.62912)"
       cx="54.778557"
       cy="58.819149"
       fx="54.77853"
       fy="58.819149"
       r="1.7856575" />
    <radialGradient
       inkscape:collect="always"
       xlink:href="#linearGradient3348"
       id="radialGradient5003"
       gradientUnits="userSpaceOnUse"
       gradientTransform="matrix(-1.7576606e-4,0.2076937,-0.2204068,-2.2906387e-4,45.493018,52.626712)"
       cx="38.444538"
       cy="63.421787"
       fx="38.444336"
       fy="63.421776"
       r="12.92077" />
  </defs>
  <sodipodi:namedview
     id="base"
     pagecolor="#ffffff"
     bordercolor="#666666"
     borderopacity="1.0"
     inkscape:pageopacity="0.0"
     inkscape:pageshadow="2"
     inkscape:zoom="13.171429"
     inkscape:cx="42.986161"
     inkscape:cy="34.532778"
     inkscape:current-layer="layer1"
     showgrid="true"
     inkscape:document-units="px"
     inkscape:grid-bbox="true"
     inkscape:window-width="1920"
     inkscape:window-height="1142"
     inkscape:window-x="-3"
     inkscape:window-y="31"
     showguides="true"
     inkscape:snap-global="false"
     inkscape:window-maximized="1">
    <inkscape:grid
       type="xygrid"
       id="grid2393"
       visible="true"
       enabled="true"
       empspacing="2" />
  </sodipodi:namedview>
  <metadata
     id="metadata2388">
    <rdf:RDF>
      <cc:Work
         rdf:about="">
        <dc:format>image/svg+xml</dc:format>
        <dc:type
           rdf:resource="http://purl.org/dc/dcmitype/StillImage" />
        <dc:title></dc:title>
      </cc:Work>
    </rdf:RDF>
  </metadata>
  <g
     id="layer1"
     inkscape:label="Layer 1"
     inkscape:groupmode="layer">
    <path
       style="fill:#000000;fill-opacity:1;fill-rule:nonzero;stroke:none"
       d="M 30.565337,52.300469 C 27.321855,51.991476 23.969861,50.670161 21.20749,48.611721 l -0.892555,-0.665106 -10.173063,0 -10.17306281,0 0,-15.829718 0,-15.829717 1.63232101,0 1.632321,0 0,-1.214751 0,-1.21475 3.8720172,0 3.8720166,0 0,1.21475 0,1.214751 3.326965,0 3.326965,0 2.878139,-3.720174 2.878139,-3.7201734 9.112141,0.00272 9.112141,0.00272 2.998915,3.7128364 2.998915,3.712836 2.941974,0.0046 2.941974,0.0046 0,-1.822126 0,-1.822126 3.644251,0 3.644252,0 0,1.822126 0,1.822126 1.632321,0 1.632321,0 0,15.829717 0,15.829718 -9.590851,0 -9.590851,0 -0.449821,0.353245 c -1.378085,1.082215 -3.740782,2.394793 -5.384745,2.991456 -1.382332,0.501706 -2.928403,0.852374 -4.327549,0.981542 -0.761629,0.07031 -3.497844,0.08857 -4.137744,0.02761 z m 4.168667,-5.081924 c 4.424903,-0.615665 8.317882,-3.384058 10.295229,-7.321191 0.984184,-1.959628 1.402934,-3.712144 1.406631,-5.886915 0.0066,-3.889833 -1.544668,-7.349947 -4.458201,-9.943961 -2.029197,-1.806661 -4.591595,-2.986422 -7.350504,-3.384267 -0.878502,-0.126684 -3.078206,-0.125859 -3.909978,0.0015 -6.117046,0.936371 -10.688478,5.360769 -11.656287,11.281377 -0.165287,1.011146 -0.16581,3.011921 -0.001,4.01033 0.482259,2.922375 1.723375,5.320514 3.838828,7.417556 3.085198,3.058346 7.377673,4.445829 11.835332,3.825606 l -2e-6,0 z"
       id="path4214"
       inkscape:connector-curvature="0" />
  </g>
</svg>
